 <svg
    className="w-5 h-5"
    xmlns="http://www.w3.org/2000/svg"
    viewBox="0 0 533.5 544.3"
  >
    <path
      fill="#4285F4"
      d="M533.5 278.4c0-17.3-1.5-34-4.3-50.2H272v95.1h146.9c-6.3 34.2-25 63.1-53.2 82.5v68h85.7c50.2-46.2 81.1-114.3 81.1-195.4z"
    />
    <path
      fill="#34A853"
      d="M272 544.3c72.3 0 132.9-23.9 177.2-65.1l-85.7-68c-23.8 16-54.4 25.6-91.5 25.6-70.4 0-130.1-47.6-151.5-111.2H34.4v69.9C78.8 486.5 169.8 544.3 272 544.3z"
    />
    <path
      fill="#FBBC04"
      d="M120.5 325.6c-10.3-30.2-10.3-62.6 0-92.8v-69.9H34.4c-35.6 70.7-35.6 154.9 0 225.6l86.1-62.9z"
    />
    <path
      fill="#EA4335"
      d="M272 107.6c39.3-.6 76.8 13.9 105.7 40.6l79-79C412.1 24.3 343.7-1.3 272 0 169.8 0 78.8 57.8 34.4 156.2l86.1 69.9C141.9 155.2 201.6 107.6 272 107.6z"
    />
  </svg>